# xmcd CD database file
#
# Track frame offsets:
#	150
#	20692
#	68221
#	114792
#	133565
#	154156
#	202814
#	248148
#
# Disc length: 3558 seconds
#
# Revision: 0
# Processed by: cddbd v1.5.2PL0 Copyright (c) Steve Scherf et al.
# Submitted via: CDex 1.79
#
DISCID=620de408
DTITLE=Christopher Penczak - The Temple of Shamanic Witchcraft Meditation CD 1 Drum and Crystal Bowl
DYEAR=2005
DGENRE=New Age
TTITLE0=Solo Drumming Journey - Shamanic Smudging Ritual
TTITLE1=Solo Drumming Journey - Countdown
TTITLE2=Solo Drumming Journey - Drumming Journey
TTITLE3=Solo Drumming Journey - Callback and Return
TTITLE4=Crystal Singing Bowl Journey - Shamanic Smudging Ritual
TTITLE5=Crystal Singing Bowl Journey - Countdown
TTITLE6=Crystal Singing Bowl Journey - Singing Bowl Journey
TTITLE7=Crystal Singing Bowl Journey - Callback and Return
EXTD=YEAR: 2005
EXTT0=
EXTT1=
EXTT2=
EXTT3=
EXTT4=
EXTT5=
EXTT6=
EXTT7=
PLAYORDER=
